<svg width="109" height="28" viewBox="0 0 109 28" fill="none" xmlns="http://www.w3.org/2000/svg">
<path d="M23.3412 6.38888H19.169V2.21665C19.169 0.992033 18.177 0 16.9524 0H2.21665C0.992033 0 0 0.992033 0 2.21665V23.3412C0 24.5659 0.992033 25.5579 2.21665 25.5579H21.2978L23.3626 27.6226C23.6047 27.8647 23.9298 28 24.2716 28C24.9812 28 25.5579 27.4257 25.5579 26.7137V8.60553C25.5579 7.38091 24.5659 6.38888 23.3412 6.38888ZM23.4291 23.4267H2.12884V2.12884H17.0378V6.38888H8.60553C7.38091 6.38888 6.38888 7.38091 6.38888 8.60553V16.9524C6.38888 18.177 7.38091 19.169 8.60553 19.169H16.9524C18.177 19.169 19.169 18.177 19.169 16.9524V8.52009H23.4291V23.4291V23.4267ZM17.0402 8.51772V17.0378H8.52009V8.51772H17.0402Z" fill="#110E08"/>
<path d="M57.8796 7.0534C57.0205 6.50992 56.0071 6.23462 54.8703 6.23462C53.7335 6.23462 52.7201 6.50992 51.861 7.0534C51.0019 7.59688 50.3255 8.3682 49.8461 9.34836C49.369 10.3262 49.127 11.4819 49.127 12.7873C49.127 14.0926 49.369 15.2317 49.8461 16.2024C50.3255 17.1778 51.0042 17.9468 51.861 18.4903C52.7201 19.0337 53.7335 19.309 54.8703 19.309C56.0071 19.309 57.0205 19.0337 57.8796 18.4903C58.7388 17.9468 59.4152 17.1778 59.8946 16.2024C60.3716 15.2317 60.6137 14.0831 60.6137 12.7873C60.6137 11.4914 60.3716 10.3238 59.8946 9.34836C59.4152 8.3682 58.7364 7.59688 57.8796 7.0534ZM58.0861 15.0609C57.8298 15.7491 57.4311 16.3116 56.9018 16.734C56.375 17.1517 55.6915 17.3653 54.8703 17.3653C54.0492 17.3653 53.3657 17.1541 52.8388 16.734C52.3072 16.3116 51.9085 15.7491 51.6545 15.0609C51.3958 14.3655 51.2653 13.6013 51.2653 12.7873C51.2653 11.9732 51.3958 11.2066 51.6545 10.5065C51.9108 9.81353 52.3095 9.24394 52.8412 8.81675C53.368 8.3943 54.0515 8.17834 54.8727 8.17834C55.6938 8.17834 56.3774 8.39193 56.9042 8.81675C57.4358 9.24394 57.8346 9.81115 58.0909 10.5065C58.3496 11.2066 58.4801 11.9756 58.4801 12.7873C58.4801 13.5989 58.3496 14.3655 58.0909 15.0609H58.0861Z" fill="#110E08"/>
<path d="M68.118 8.18308L68.1037 6.33192C68.1037 6.2631 68.0468 6.20851 67.9803 6.20614C67.8237 6.20376 67.6884 6.20139 67.5745 6.20139C66.8103 6.20139 66.1149 6.40075 65.505 6.79471C64.9663 7.14121 64.5699 7.58739 64.3231 8.12138V6.52178C64.3231 6.45296 64.2661 6.396 64.1973 6.396H62.3746C62.3058 6.396 62.2489 6.45296 62.2489 6.52178V19.0005C62.2489 19.0693 62.3058 19.1263 62.3746 19.1263H64.2614C64.3302 19.1263 64.3872 19.0693 64.3872 19.0005V11.0714C64.3872 10.535 64.5177 10.0509 64.7788 9.63079C65.0398 9.21071 65.4006 8.87608 65.8515 8.63638C66.3048 8.39668 66.8293 8.27327 67.4107 8.27327C67.6054 8.27327 67.7952 8.28513 67.9756 8.30649C68.0515 8.31599 68.1156 8.25903 68.1156 8.18308H68.118Z" fill="#110E08"/>
<path d="M82.8134 6.39837H84.7001C84.7689 6.39837 84.8259 6.45533 84.8259 6.52416V19.0527C84.8259 19.1215 84.7689 19.1785 84.7001 19.1785H82.8134C82.7445 19.1785 82.6876 19.1215 82.6876 19.0527V6.52416C82.6876 6.45533 82.7445 6.39837 82.8134 6.39837Z" fill="#110E08"/>
<path d="M83.7722 1.73724C83.3711 1.73724 83.0222 1.87489 82.735 2.1502C82.4455 2.4255 82.2984 2.76013 82.2984 3.14697C82.2984 3.53382 82.4455 3.86845 82.735 4.14375C83.0222 4.41668 83.3711 4.5567 83.7722 4.5567C84.1733 4.5567 84.5221 4.41905 84.8093 4.14375C85.0988 3.86845 85.246 3.53382 85.246 3.14697C85.246 2.76013 85.0988 2.4255 84.8093 2.1502C84.5221 1.87727 84.1733 1.73724 83.7722 1.73724Z" fill="#110E08"/>
<path d="M95.0049 6.97033C94.5065 6.67367 93.9868 6.47432 93.4528 6.37701C92.9283 6.28208 92.4584 6.23462 92.0525 6.23462C91.4213 6.23462 90.7686 6.32243 90.1183 6.4933C89.4609 6.66655 88.8486 6.97271 88.298 7.40465C87.7735 7.81522 87.344 8.38244 87.0212 9.09205C86.9903 9.1585 87.0236 9.23919 87.0924 9.26293L88.8818 9.91795C88.9412 9.93931 89.0053 9.91321 89.0361 9.85625C89.245 9.45753 89.582 9.07544 90.0448 8.71944C90.5384 8.33735 91.2361 8.14511 92.119 8.14511C93.0019 8.14511 93.5976 8.35633 94.0058 8.77403C94.4163 9.19173 94.6228 9.78979 94.6228 10.554V10.6181C94.6228 10.8839 94.535 11.0619 94.3523 11.1663C94.1482 11.2826 93.8159 11.3657 93.3626 11.4155C92.8927 11.4653 92.2733 11.5413 91.5209 11.6386C90.9442 11.7145 90.3628 11.8166 89.7932 11.9447C89.2165 12.0729 88.6825 12.2699 88.2055 12.5262C87.7213 12.7873 87.3273 13.1527 87.0378 13.6132C86.7459 14.0736 86.5987 14.6788 86.5987 15.4097C86.5987 16.238 86.7957 16.9547 87.1849 17.5409C87.5718 18.1248 88.1034 18.5781 88.7608 18.8842C89.4158 19.1904 90.1516 19.3446 90.9537 19.3446C91.6894 19.3446 92.3207 19.2331 92.8357 19.0124C93.3484 18.7917 93.7661 18.5187 94.077 18.2031C94.3072 17.9681 94.4899 17.7427 94.6252 17.5267V19.0171C94.6252 19.0812 94.6774 19.131 94.7391 19.131H96.6496C96.7137 19.131 96.7635 19.0788 96.7635 19.0171V10.7533C96.7635 9.75182 96.595 8.93779 96.2651 8.33497C95.9329 7.73216 95.5081 7.27411 95.0049 6.97271V6.97033ZM94.6252 14.4367C94.6252 14.9327 94.4947 15.4097 94.2407 15.8607C93.9844 16.3092 93.6023 16.6818 93.1015 16.9666C92.6008 17.2514 91.9766 17.3962 91.2456 17.3962C90.5147 17.3962 89.9024 17.2324 89.4301 16.9096C88.9649 16.5916 88.7395 16.1336 88.7395 15.5047C88.7395 15.0514 88.8605 14.6906 89.1002 14.4296C89.347 14.1614 89.6793 13.9573 90.0875 13.822C90.5075 13.682 90.9656 13.5799 91.4545 13.5159C91.6586 13.4897 91.9268 13.4541 92.259 13.4138C92.5913 13.3735 92.9378 13.3236 93.2914 13.2667C93.6474 13.2097 93.9678 13.1409 94.2431 13.0602C94.3997 13.0151 94.5255 12.9676 94.6252 12.9154V14.4367Z" fill="#110E08"/>
<path d="M107.405 13.2619C106.848 12.6971 105.993 12.2699 104.868 11.9969L103.024 11.5437C102.31 11.3657 101.781 11.1402 101.451 10.8768C101.133 10.6228 100.976 10.2834 100.976 9.84201C100.976 9.34362 101.206 8.94253 101.683 8.61502C102.165 8.28276 102.782 8.11426 103.516 8.11426C104.05 8.11426 104.493 8.19969 104.83 8.3682C105.17 8.5367 105.44 8.75267 105.635 9.01136C105.808 9.23919 105.948 9.47652 106.05 9.71622C106.076 9.77556 106.138 9.80641 106.2 9.78979L107.894 9.29615C107.963 9.27479 108.003 9.19885 107.98 9.13002C107.671 8.28513 107.17 7.59213 106.484 7.06764C105.763 6.51466 104.764 6.23462 103.516 6.23462C102.63 6.23462 101.826 6.39363 101.128 6.7069C100.425 7.02017 99.863 7.4616 99.4572 8.01458C99.049 8.5723 98.8401 9.22021 98.8401 9.94406C98.8401 10.8269 99.1178 11.5745 99.6684 12.1607C100.212 12.7445 101.073 13.1788 102.229 13.4518L104.301 13.9383C104.904 14.0783 105.352 14.2895 105.637 14.5672C105.92 14.8401 106.055 15.17 106.055 15.5735C106.055 16.0719 105.813 16.4896 105.314 16.8503C104.811 17.2134 104.121 17.3985 103.259 17.3985C102.504 17.3985 101.89 17.2372 101.427 16.9168C100.997 16.6201 100.694 16.1763 100.523 15.5948C100.504 15.5308 100.437 15.4904 100.373 15.507L98.5767 15.9532C98.5103 15.9698 98.4675 16.0387 98.4818 16.1051C98.7239 17.128 99.2602 17.923 100.081 18.4641C100.926 19.0242 102.006 19.309 103.292 19.309C104.27 19.309 105.139 19.1429 105.879 18.813C106.622 18.4831 107.211 18.0227 107.628 17.4484C108.048 16.8693 108.262 16.2048 108.262 15.4714C108.262 14.5767 107.975 13.8315 107.412 13.2595L107.405 13.2619Z" fill="#110E08"/>
<path d="M40.258 16.4967C39.1924 16.4967 38.7723 16.2238 38.7723 15.5498C38.7723 14.731 39.8403 14.3275 39.8403 14.3275C40.5475 14.5957 41.3806 14.7286 42.28 14.7286C45.3107 14.7286 47.4704 13.129 47.4704 10.5754C47.4704 10.0248 47.2877 9.0873 46.5401 8.17834H48.8374C48.9063 8.17834 48.9632 8.12138 48.9632 8.05255V6.52178C48.9632 6.45296 48.9063 6.396 48.8374 6.396H42.28C39.2778 6.396 37.1466 7.99559 37.1466 10.5754C37.1466 11.921 37.7352 13.0151 38.7462 13.7461C37.6521 14.2231 36.8951 14.9802 36.8951 16.0458C36.8951 16.8859 37.3104 17.6335 38.2289 18.0393C37.8301 18.1414 35.998 18.7656 35.998 20.733C35.998 23.0066 38.7462 24.0437 42.057 24.0437C45.7047 24.0437 49.127 22.8642 49.127 19.8074C49.127 17.8993 47.7244 16.4967 45.0592 16.4967H40.258ZM42.2895 8.18071C44.1597 8.18071 45.3084 9.03272 45.3084 10.5896C45.3084 12.1465 44.1621 12.9463 42.2895 12.9463C40.417 12.9463 39.3016 12.0943 39.3016 10.5896C39.3016 9.08493 40.4479 8.18071 42.2895 8.18071ZM42.0593 22.2377C39.7501 22.2377 38.1529 21.604 38.1529 20.1516C38.1529 18.9103 39.266 18.514 40.5476 18.514H44.5679C46.0227 18.514 46.9625 18.8842 46.9625 19.9403C46.9625 21.604 44.9096 22.2377 42.0593 22.2377Z" fill="#110E08"/>
<path d="M72.1454 16.4967C71.0798 16.4967 70.6598 16.2238 70.6598 15.5498C70.6598 14.731 71.7278 14.3275 71.7278 14.3275C72.435 14.5957 73.268 14.7286 74.1675 14.7286C77.1982 14.7286 79.3579 13.129 79.3579 10.5754C79.3579 10.0248 79.1751 9.0873 78.4275 8.17834H80.7249C80.7937 8.17834 80.8507 8.12138 80.8507 8.05255V6.52178C80.8507 6.45296 80.7937 6.396 80.7249 6.396H74.1675C71.1653 6.396 69.0341 7.99559 69.0341 10.5754C69.0341 11.921 69.6226 13.0151 70.6337 13.7461C69.5396 14.2231 68.7825 14.9802 68.7825 16.0458C68.7825 16.8859 69.1978 17.6335 70.1163 18.0393C69.7176 18.1414 67.8854 18.7656 67.8854 20.733C67.8854 23.0066 70.6337 24.0437 73.9444 24.0437C77.5921 24.0437 81.0144 22.8642 81.0144 19.8074C81.0144 17.8993 79.6118 16.4967 76.9466 16.4967H72.1454ZM74.177 8.18071C76.0471 8.18071 77.1958 9.03272 77.1958 10.5896C77.1958 12.1465 76.0495 12.9463 74.177 12.9463C72.3045 12.9463 71.189 12.0943 71.189 10.5896C71.189 9.08493 72.3353 8.18071 74.177 8.18071ZM73.9468 22.2377C71.6376 22.2377 70.0403 21.604 70.0403 20.1516C70.0403 18.9103 71.1534 18.514 72.435 18.514H76.4553C77.9102 18.514 78.85 18.8842 78.85 19.9403C78.85 21.604 76.7971 22.2377 73.9468 22.2377Z" fill="#110E08"/>
</svg>
